<!DOCTYPE svg PUBLIC "-//W3C//DTD SVG 1.1//EN" "http://www.w3.org/Graphics/SVG/1.1/DTD/svg11.dtd">
<!-- Uploaded to: SVG Repo, www.svgrepo.com, Transformed by: SVG Repo Mixer Tools -->
<svg width="149px" height="149px" viewBox="-3.2 -3.2 38.40 38.40" xmlns="http://www.w3.org/2000/svg" fill="#ffffff" stroke="#ffffff" stroke-width="0.00032" transform="rotate(0)">
<g id="SVGRepo_bgCarrier" stroke-width="0"/>
<g id="SVGRepo_tracerCarrier" stroke-linecap="round" stroke-linejoin="round" stroke="#CCCCCC" stroke-width="0.256"/>
<g id="SVGRepo_iconCarrier"> <defs> <style>.cls-1{fill:#171a2b;}.cls-2{fill:#916bf8;}.cls-3{fill:#ff7d8a;}.cls-4{fill:#6c95fa;}</style> </defs> <g data-name=" performance" id="_performance"> <circle class="cls-1" cx="16" cy="16" r="16"/> <rect class="cls-2" height="14" width="6" x="2" y="16"/> <rect class="cls-3" height="19" width="6" x="11" y="11"/> <polygon class="cls-4" points="23 1.4 16.92 9 20 9 20 30 26 30 26 9 29.08 9 23 1.4"/> <path d="M2,30H8V16H2ZM4,18H6V28H4Zm7,12h6V11H11Zm2-17h2V28H13ZM23,1.4,16.92,9H20V30h6V9h3.08ZM24,7V28H22V7h-.92L23,4.6,24.92,7Z"/> </g> </g>
</svg>